<?xml version="1.0" encoding="utf-8"?>
<!-- Generator: Adobe Illustrator 15.1.0, SVG Export Plug-In . SVG Version: 6.00 Build 0)  -->
<!DOCTYPE svg PUBLIC "-//W3C//DTD SVG 1.1//EN" "http://www.w3.org/Graphics/SVG/1.1/DTD/svg11.dtd">
<svg version="1.1" id="Layer_1" xmlns="http://www.w3.org/2000/svg" xmlns:xlink="http://www.w3.org/1999/xlink" x="0px" y="0px"
	 width="32px" height="32px" viewBox="0 0 32 32" enable-background="new 0 0 32 32" xml:space="preserve">
<g>
	<g>
		<path fill="#00C99B" d="M19.477,21.762L16.35,21.22l4.618-10.187l0.098-0.239l-4.131,9.856l-3.163-0.634l4.522-10.379l-0.14-0.059
			l-4.471,10.649c-0.199,0.423-0.271,0.877-0.191,1.182c0.275,1.083,0.914,3.413,1.09,4.047l-8.478,0.432
			c-0.027,0-0.048,0.022-0.048,0.049c-0.001,0.026,0.019,0.05,0.048,0.051l9.087,0.438c0.006,0,0.014,0,0.02,0
			c0.012,0,0.021-0.004,0.033-0.007c0.01,0,0.019,0.003,0.027,0.003c0.09,0,0.179-0.021,0.263-0.06
			c0.327-0.157,3.218-1.682,3.993-2.276c0.337-0.259,0.572-0.715,0.786-1.192l4.438-10.561l-1.115-0.465L19.477,21.762z
			 M18.791,23.127c-0.286,0.219-1.019,0.62-1.787,1.019l-2.361,0.058c-0.229-0.846-0.936-3.23-1.073-3.774
			c0-0.023,1.106,0.52,1.12,0.455l4.286,1.988C18.889,23.023,18.829,23.098,18.791,23.127z"/>
		<path fill="#00C99B" d="M24.829,7.433L21.6,6.078c-0.226-0.094-0.463-0.143-0.704-0.143c-0.738,0-1.397,0.438-1.683,1.117
			l-0.515,1.227l2.913,1.215l0.96,0.402l2.725,1.137l0.507-1.213C26.191,8.895,25.754,7.824,24.829,7.433z"/>
	</g>
	<g>
		<path fill="#FFFFFF" d="M18.599,21.401l-1.589-0.694l4.141-9.873l-0.962-0.401l-4.132,9.855l-1.791-0.784l4.125-9.822
			l-1.116-0.466l-4.471,10.649c-0.199,0.423-0.27,0.879-0.191,1.181c0.274,1.085,0.915,3.414,1.09,4.048l-7.574,0.742
			c-0.026,0-0.048,0.021-0.049,0.049c0,0.027,0.021,0.05,0.049,0.052l8.186-0.002c0.004,0.002,0.012,0.002,0.018,0
			c0.013,0,0.023-0.005,0.035-0.008c0.008,0,0.018,0.003,0.026,0.003c0.089,0,0.179-0.018,0.262-0.06
			c0.327-0.158,3.219-1.551,3.996-2.146c0.338-0.261,0.573-0.716,0.787-1.192l4.435-10.563l-1.116-0.466L18.599,21.401z
			 M17.912,22.765c-0.287,0.222-1.019,0.622-1.785,1.021l-1.729-0.727c-0.23-0.844-0.471-1.744-0.609-2.286
			c0-0.024,0.005-0.071,0.02-0.138l4.289,1.877C18.009,22.664,17.95,22.735,17.912,22.765z"/>
		<path fill="#FFFFFF" d="M23.949,7.073l-3.23-1.354c-0.224-0.095-0.461-0.143-0.704-0.143c-0.738,0-1.396,0.439-1.679,1.117
			l-0.518,1.226l2.914,1.216l0.962,0.4l2.722,1.137l0.509-1.212C25.313,8.534,24.877,7.464,23.949,7.073z"/>
	</g>
</g>
</svg>
