<?xml version="1.0" encoding="utf-8"?>
<!-- Generator: Adobe Illustrator 15.1.0, SVG Export Plug-In . SVG Version: 6.00 Build 0)  -->
<!DOCTYPE svg PUBLIC "-//W3C//DTD SVG 1.1//EN" "http://www.w3.org/Graphics/SVG/1.1/DTD/svg11.dtd">
<svg version="1.1" id="Layer_1" xmlns="http://www.w3.org/2000/svg" xmlns:xlink="http://www.w3.org/1999/xlink" x="0px" y="0px"
	 width="32px" height="32px" viewBox="0 0 32 32" enable-background="new 0 0 32 32" xml:space="preserve">
<g>
	<path fill="#00C99B" d="M26.565,16.729c-0.137-1.004-0.56-1.895-1.178-2.604c0.017-0.274,0.008-0.554-0.029-0.837
		c-0.312-2.323-2.449-3.955-4.773-3.643C20.384,9.672,20.189,9.718,20,9.771c-0.103-0.134-0.212-0.262-0.327-0.385
		c-0.951-1.788-2.936-2.889-5.06-2.604c-2.269,0.304-1.914,1.043-2.214,3.203c0.9,0.331-0.054,1.949,1.072,2.932
		c0,0-1.157-0.713-3.155-0.528c-2.719,0.376-4.625,2.878-4.259,5.599c0.325,2.432,2.35,4.208,4.714,4.316
		c0,0,0.093,2.987-1.807,4.071c0,0,3.382,0.548,6.571-3.184c0.604,0.158,1.245,0.203,1.9,0.115c1.009-0.137,1.906-0.564,2.617-1.191
		c0.697,0.233,1.456,0.321,2.235,0.216C25.015,21.965,26.931,19.456,26.565,16.729z"/>
	<path fill="#FFFFFF" d="M25.942,15.59c-0.134-1.003-0.56-1.896-1.178-2.605c0.019-0.273,0.01-0.554-0.027-0.835
		c-0.313-2.324-2.449-3.955-4.773-3.643c-0.204,0.025-0.396,0.072-0.587,0.125c-0.103-0.135-0.21-0.263-0.326-0.386
		c-0.951-1.788-2.936-2.889-5.06-2.604c-2.269,0.305-3.972,2.094-4.271,4.254c0.899,0.331,2.002,0.898,3.13,1.883
		c0,0-1.159-0.714-3.157-0.529c-2.717,0.376-4.624,2.877-4.258,5.601c0.325,2.428,2.35,4.209,4.715,4.312
		c0,0,0.092,2.991-1.808,4.07c0,0,3.382,0.553,6.571-3.181c0.604,0.157,1.246,0.203,1.9,0.117c1.007-0.136,1.905-0.567,2.619-1.19
		c0.696,0.233,1.453,0.315,2.232,0.216C24.393,20.827,26.31,18.317,25.942,15.59z"/>
</g>
</svg>
