<?xml version="1.0" encoding="utf-8"?>
<!-- Generator: Adobe Illustrator 15.1.0, SVG Export Plug-In . SVG Version: 6.00 Build 0)  -->
<!DOCTYPE svg PUBLIC "-//W3C//DTD SVG 1.1//EN" "http://www.w3.org/Graphics/SVG/1.1/DTD/svg11.dtd">
<svg version="1.1" id="Layer_1" xmlns="http://www.w3.org/2000/svg" xmlns:xlink="http://www.w3.org/1999/xlink" x="0px" y="0px"
	 width="32px" height="32px" viewBox="0 0 32 32" enable-background="new 0 0 32 32" xml:space="preserve">
<g>
	<path fill-rule="evenodd" clip-rule="evenodd" fill="#00C99B" stroke="#00C99B" stroke-width="1.0535" stroke-miterlimit="10" d="
		M16.823,11.447c0.867-0.986,1.788-1.74,3.501-1.818c2.328-0.106,4.249,1.266,4.916,2.861c0.299,0.719,0.406,1.821,0.333,2.894
		c-0.182,2.73-1.891,4.552-3.432,6.093c-1.121,1.121-2.402,2.325-3.804,3.335c-0.42,0.3-1.113,0.81-1.549,0.805
		c-0.407-0.004-0.883-0.469-1.212-0.739c-1.072-0.891-2.22-1.722-3.195-2.625c-1.348-1.248-2.719-2.615-3.533-4.208
		c-0.809-1.574-0.943-3.955-0.27-5.589c0.623-1.514,2.068-2.658,3.903-2.791C14.43,9.521,15.893,10.332,16.823,11.447z"/>
	<path fill-rule="evenodd" clip-rule="evenodd" fill="#FFFFFF" d="M15.975,8.452c0.982-1.118,2.027-1.973,3.972-2.062
		c2.638-0.121,4.819,1.434,5.57,3.244c0.339,0.815,0.465,2.064,0.383,3.281c-0.207,3.095-2.146,5.161-3.892,6.908
		c-1.272,1.272-2.724,2.638-4.315,3.78c-0.477,0.344-1.263,0.92-1.756,0.915c-0.462-0.006-1.001-0.532-1.374-0.839
		c-1.216-1.011-2.519-1.952-3.623-2.976c-1.528-1.419-3.082-2.966-4.009-4.773c-0.915-1.783-1.216-4.019-0.304-6.334
		c0.68-1.729,2.344-3.018,4.426-3.169C13.262,6.268,14.922,7.187,15.975,8.452z"/>
</g>
</svg>
