<?xml version="1.0" encoding="utf-8"?>
<!-- Generator: Adobe Illustrator 15.1.0, SVG Export Plug-In . SVG Version: 6.00 Build 0)  -->
<!DOCTYPE svg PUBLIC "-//W3C//DTD SVG 1.1//EN" "http://www.w3.org/Graphics/SVG/1.1/DTD/svg11.dtd">
<svg version="1.1" id="Layer_1" xmlns="http://www.w3.org/2000/svg" xmlns:xlink="http://www.w3.org/1999/xlink" x="0px" y="0px"
	 width="32px" height="32px" viewBox="0 0 32 32" enable-background="new 0 0 32 32" xml:space="preserve">
<g>
	<g>
		<path fill="#00C99B" d="M24.313,14.405c-0.412-1.721-1.398-3.231-2.716-4.3c-0.117,0.63-0.503,1.144-0.902,1.526
			c0.812,0.902,1.342,2.029,1.495,3.173c0.23,1.575-0.198,3.129-1.102,4.319c-0.898,1.192-2.243,1.964-3.651,2.148
			c-0.057,0.007-0.115,0.019-0.174,0.032c-0.875,0.213-1.412,1.095-1.199,1.968c0.212,0.875,1.095,1.411,1.97,1.198l0.046-0.011
			c1.096-0.267,2.137-0.749,3.036-1.409c0.9-0.66,1.658-1.491,2.226-2.428c0.568-0.938,0.946-1.978,1.11-3.045
			C24.619,16.516,24.562,15.404,24.313,14.405z"/>
		<path fill="#00C99B" d="M16.271,9.529c-0.215-0.874-1.1-1.408-1.974-1.191L14.247,8.35c-1.096,0.271-2.134,0.758-3.03,1.421
			c-0.896,0.662-1.648,1.497-2.21,2.432c-1.134,1.868-1.462,4.165-0.936,6.205c0.396,1.612,1.316,3.058,2.543,4.101
			c0.163-0.654,0.531-1.072,0.913-1.337c-0.786-0.905-1.299-2.017-1.449-3.168c-0.218-1.564,0.221-3.147,1.136-4.333
			c0.91-1.195,2.265-1.958,3.675-2.131c0.06-0.009,0.131-0.021,0.191-0.036C15.954,11.288,16.487,10.403,16.271,9.529z"/>
		<path fill="#00C99B" d="M11.902,7.726c-0.185-1.042,0.479-1.599,1.473-1.238l5.563,2.016c0.995,0.36,1.146,1.213,0.336,1.895
			l-4.526,3.809c-0.811,0.681-1.625,0.386-1.811-0.656L11.902,7.726z"/>
		<path fill="#00C99B" d="M20.113,25.151c0.183,1.043-0.481,1.598-1.476,1.233l-5.556-2.031c-0.994-0.363-1.143-1.217-0.332-1.896
			l4.539-3.795c0.813-0.679,1.625-0.382,1.808,0.661L20.113,25.151z"/>
	</g>
	<g>
		<path fill="#FFFFFF" d="M23.94,13.531c-0.414-1.721-1.399-3.232-2.718-4.3c-0.117,0.63-0.502,1.145-0.901,1.526
			c0.811,0.901,1.341,2.029,1.495,3.173c0.231,1.575-0.197,3.129-1.102,4.319c-0.479,0.636-1.088,1.148-1.763,1.52l-0.231-1.318
			c-0.182-1.043-0.994-1.342-1.807-0.661l-4.537,3.795c-0.813,0.679-0.663,1.533,0.33,1.896l5.557,2.032
			c0.993,0.362,1.658-0.193,1.476-1.234l-0.236-1.353c0.435-0.215,0.852-0.465,1.24-0.749c0.9-0.66,1.657-1.492,2.226-2.429
			c0.569-0.936,0.947-1.977,1.11-3.044C24.246,15.642,24.188,14.531,23.94,13.531z"/>
		<path fill="#FFFFFF" d="M12.343,11.442l0.22,1.235c0.186,1.042,0.999,1.337,1.81,0.655l4.527-3.809
			c0.811-0.681,0.659-1.534-0.336-1.894L13,5.613c-0.995-0.36-1.657,0.197-1.473,1.238l0.257,1.444
			c-0.327,0.181-0.644,0.38-0.941,0.601c-0.896,0.663-1.649,1.497-2.211,2.432c-1.134,1.868-1.461,4.165-0.936,6.204
			c0.396,1.613,1.316,3.059,2.543,4.103c0.163-0.655,0.531-1.073,0.914-1.339c-0.786-0.905-1.299-2.017-1.449-3.168
			c-0.219-1.564,0.219-3.147,1.135-4.332C11.257,12.247,11.774,11.793,12.343,11.442z"/>
	</g>
</g>
</svg>
